# xmcd CD database file
#
# Track frame offsets:
#	150
#	26702
#	49129
#	72363
#	107050
#	132219
#	161090
#	179396
#	190436
#	214342
#	239431
#
# Disc length: 3507 seconds
#
# Revision: 1
# Processed by: cddbd v1.5.2PL0 Copyright (c) Steve Scherf et al.
# Submitted via: CDex 1.51
#
DISCID=a60db10b
DTITLE=Kind of Stuttgart - Kind of Stuttgart
DYEAR=2014
DGENRE=Jazz
TTITLE0=Rosensteinpark (Libor Sima)
TTITLE1=Central Park West (John Coltrane)
TTITLE2=Butterfly (Herbie Hancock/Bennie Maupin)
TTITLE3=Straphangin' (Michael Brecker)
TTITLE4=The Peacocks (Jimmy Rowles)
TTITLE5=Klettpassage (Libor Sima)
TTITLE6=Nevertheless (Libor Sima)
TTITLE7=Weeny Weasel (Libor Sima)
TTITLE8=Love Dance (Ivan Lins)
TTITLE9=Schlosspark (Libor Sima)
TTITLE10=Fernsehturm (Libor Sima)
EXTD=YEAR: 2014
EXTT0=
EXTT1=
EXTT2=
EXTT3=
EXTT4=
EXTT5=
EXTT6=
EXTT7=
EXTT8=
EXTT9=
EXTT10=
PLAYORDER=
